<svg xmlns="http://www.w3.org/2000/svg" viewBox="0 0 1200 700" role="img" aria-labelledby="title"><title id="title">Vitalis Clinic website preview</title><defs><linearGradient id="bg" x1="0" y1="0" x2="1" y2="1"><stop stop-color="#251d46"/><stop offset="1" stop-color="#101522"/></linearGradient><linearGradient id="accent" x1="0" x2="1"><stop stop-color="#a78bfa"/><stop offset="1" stop-color="#f9a8d4"/></linearGradient></defs><rect width="1200" height="700" fill="url(#bg)"/><circle cx="1010" cy="80" r="240" fill="#8b5cf6" opacity=".18"/><rect x="90" y="82" width="1020" height="540" rx="24" fill="#f8f7ff"/><rect x="90" y="82" width="1020" height="70" rx="24" fill="#fff"/><circle cx="137" cy="117" r="10" fill="#a78bfa"/><text x="170" y="126" font-family="Arial, sans-serif" font-size="25" font-weight="700" fill="#221b3e">vitalis</text><text x="814" y="124" font-family="Arial, sans-serif" font-size="16" fill="#635f73">Services   Doctors   About</text><rect x="92" y="152" width="1016" height="470" fill="#eeeafd"/><circle cx="870" cy="390" r="190" fill="#d8d1fa"/><circle cx="870" cy="390" r="138" fill="#bbaef1"/><path d="M833 376c0-35 29-63 64-63s64 28 64 63-29 64-64 64-64-29-64-64z" fill="#f5d7ca"/><path d="M814 518c12-83 51-119 84-119 45 0 85 36 98 119" fill="#7057b8"/><text x="180" y="285" font-family="Arial, sans-serif" font-size="25" fill="#7b7195">Care that begins with listening</text><text x="180" y="360" font-family="Arial, sans-serif" font-size="58" font-weight="700" fill="#221b3e">Feel better,<tspan x="180" dy="64">live healthier.</tspan></text><rect x="180" y="510" width="180" height="54" rx="27" fill="url(#accent)"/><text x="213" y="545" font-family="Arial, sans-serif" font-size="17" font-weight="700" fill="#fff">Book a visit</text></svg>
